# xmcd CD database file
#
# Track frame offsets:
#	150
#	17303
#	47538
#	82958
#	115365
#	139383
#	167018
#	200113
#	222387
#	262274
#	293989
#	319685
#
# Disc length: 4516 seconds
#
# Revision: 0
# Processed by: cddbd v1.5.2PL0 Copyright (c) Steve Scherf et al.
# Submitted via: CDex 1.51
#
DISCID=b411a20c
DTITLE=Mike Turk - Turk's Works
DYEAR=1996
DGENRE=Jazz
TTITLE0=01 Prey Loot
TTITLE1=02 Lover/Diggin For Diz
TTITLE2=03 Peace
TTITLE3=04 Nobody Else But Me
TTITLE4=05 The Touch of Your Lips
TTITLE5=06 Crazyology
TTITLE6=07 Senor Fumo
TTITLE7=08 Sweet and Lovely
TTITLE8=09 Bluesharp
TTITLE9=10 S.K.J.
TTITLE10=11 Three Little Words
TTITLE11=12 How Long Has This Been Going On?
EXTD=YEAR: 1996
EXTT0=
EXTT1=
EXTT2=
EXTT3=
EXTT4=
EXTT5=
EXTT6=
EXTT7=
EXTT8=
EXTT9=
EXTT10=
EXTT11=
PLAYORDER=
